<svg id="publicdomainvectors.org" xmlns="http://www.w3.org/2000/svg" viewBox="0 0 263.795 553.803"><defs><style>.cls-1{fill:#342e2a;}.cls-1,.cls-11,.cls-12,.cls-14,.cls-15,.cls-16,.cls-17,.cls-18,.cls-2,.cls-3,.cls-5,.cls-6,.cls-8,.cls-9{fill-rule:evenodd;}.cls-2{fill:#4e4542;}.cls-3{fill:#917e4d;}.cls-4{fill:#ab996d;}.cls-5{fill:#b5a272;}.cls-6,.cls-7{fill:#fef081;}.cls-10,.cls-8{fill:#7d706a;}.cls-9{fill:#645854;}.cls-11{fill:#f9b870;}.cls-12{fill:#f2aa5d;}.cls-13{fill:#fad08d;}.cls-14{fill:#ffcd05;}.cls-15{fill:#eb7923;}.cls-16{fill:#f7911e;}.cls-17{fill:#fedd30;}.cls-18{fill:#5f5450;}</style></defs><path class="cls-1" d="M329.814,506.927c45.708,0,85.189,8.741,103.743,21.4h11.289v16.313c0,20.83-51.5,37.716-115.032,37.716s-115.031-16.886-115.031-37.716V528.33h11.29C244.627,515.668,284.107,506.927,329.814,506.927Z" transform="translate(-197.916 -28.556)"/><path class="cls-2" d="M329.814,468.265c52.411,0,97.678,10.022,118.954,24.538h12.944v18.7c0,23.885-59.052,43.246-131.9,43.246s-131.9-19.361-131.9-43.246V492.8h12.946C232.136,478.287,277.4,468.265,329.814,468.265Z" transform="translate(-197.916 -28.556)"/><path class="cls-1" d="M398.25,474.534c21.776,4.344,39.415,10.695,50.518,18.269h12.944v18.7c0,23.885-59.052,43.246-131.9,43.246-7.817,0-15.476-.226-22.922-.652,47.756,2.608,95.867-6.419,127.266-24.757,5.569-3.25,4.348-6.618-1.742-4.65-32.75,10.592-68.156,14.2-102.6,11.354l-38.206-25.311c-.314-.125-.627-.253-.94-.378Z" transform="translate(-197.916 -28.556)"/><path class="cls-3" d="M329.814,536.049c72.647,0,131.9-19.426,131.9-43.246s-59.251-43.243-131.9-43.243-131.9,19.425-131.9,43.243S257.168,536.049,329.814,536.049Z" transform="translate(-197.916 -28.556)"/><ellipse class="cls-4" cx="131.898" cy="464.09" rx="82.36" ry="28.914"/><path class="cls-1" d="M329.814,511.219c29.139,0,52.9-8.344,52.9-18.572s-23.765-18.574-52.9-18.574-52.9,8.344-52.9,18.574S300.677,511.219,329.814,511.219Z" transform="translate(-197.916 -28.556)"/><path class="cls-5" d="M255.42,272.644h17.118V468.01c0,4.007-17.118,3.9-17.118,0V272.644Zm131.671,0h17.118V468.01c0,4.007-17.118,3.9-17.118,0Z" transform="translate(-197.916 -28.556)"/><path class="cls-6" d="M246.973,296.791h19.061V520.244c0,4.583-19.061,4.453-19.061,0V296.791Zm146.623,0h19.059V520.244c0,4.583-19.059,4.453-19.059,0Z" transform="translate(-197.916 -28.556)"/><ellipse class="cls-7" cx="131.898" cy="246.838" rx="131.897" ry="44.235"/><path class="cls-1" d="M244.726,296.791H264.3V520.244c0,4.583-19.577,4.453-19.577,0V296.791Zm150.6,0H414.9V520.244c0,4.583-19.577,4.453-19.577,0Z" transform="translate(-197.916 -28.556)"/><path class="cls-2" d="M329.814,231.16c52.411,0,97.678,10.022,118.954,24.539h12.944v18.7c0,23.884-59.052,43.246-131.9,43.246s-131.9-19.362-131.9-43.246V255.7h12.946C232.136,241.182,277.4,231.16,329.814,231.16Z" transform="translate(-197.916 -28.556)"/><path class="cls-1" d="M398.25,237.43c21.776,4.343,39.415,10.694,50.518,18.269h12.944v18.7c0,23.884-59.052,43.246-131.9,43.246-7.817,0-15.476-.225-22.922-.653,47.756,2.608,95.867-6.42,127.266-24.756,5.569-3.252,4.348-6.618-1.742-4.649-32.75,10.59-68.156,14.2-102.6,11.353l-38.206-25.312-.94-.377Z" transform="translate(-197.916 -28.556)"/><path class="cls-8" d="M329.814,298.945c72.647,0,131.9-19.427,131.9-43.246s-59.251-43.244-131.9-43.244-131.9,19.426-131.9,43.244S257.168,298.945,329.814,298.945Z" transform="translate(-197.916 -28.556)"/><path class="cls-9" d="M329.814,212.455c72.846,0,131.9,19.361,131.9,43.244a14.586,14.586,0,0,1-.263,2.7c-21.188,3.549-46.959,5.633-74.762,5.633-72.2,0-130.729-14.037-130.729-31.353,0-5.987,7-11.581,19.136-16.339A372.834,372.834,0,0,1,329.814,212.455Z" transform="translate(-197.916 -28.556)"/><path class="cls-2" d="M329.814,187.345c33.875,0,63.135,6.479,76.886,15.863h8.367v35.734c0,15.438-38.168,27.953-85.253,27.953s-85.252-12.515-85.252-27.953V203.208h8.366C266.68,193.824,295.939,187.345,329.814,187.345Z" transform="translate(-197.916 -28.556)"/><ellipse class="cls-10" cx="131.898" cy="174.651" rx="85.253" ry="27.952"/><path class="cls-9" d="M329.814,175.255c47.085,0,85.253,12.515,85.253,27.953a11.876,11.876,0,0,1-3.455,7.9,252.436,252.436,0,0,1-26.347,1.348c-46.786,0-84.713-12.221-84.713-27.3,0-3.038,1.543-5.961,4.386-8.69C312.808,175.68,321.161,175.255,329.814,175.255Z" transform="translate(-197.916 -28.556)"/><path class="cls-2" d="M329.814,146.813c25.805,0,48.095,4.935,58.57,12.083h6.373v27.221c0,11.76-29.075,21.293-64.943,21.293s-64.942-9.533-64.942-21.293V158.9h6.374C281.72,151.748,304.01,146.813,329.814,146.813Z" transform="translate(-197.916 -28.556)"/><path class="cls-8" d="M329.814,137.6c35.868,0,64.943,9.533,64.943,21.293s-29.075,21.293-64.943,21.293-64.942-9.534-64.942-21.293S293.948,137.6,329.814,137.6Z" transform="translate(-197.916 -28.556)"/><path class="cls-11" d="M376.605,438.3v51.992c0,8.474-20.948,15.342-46.791,15.342s-46.79-6.868-46.79-15.342V438.3Z" transform="translate(-197.916 -28.556)"/><path class="cls-12" d="M376.605,438.3v38.035a9.608,9.608,0,0,1-14.717,8.138,61.458,61.458,0,0,0-64.147,0,9.608,9.608,0,0,1-14.717-8.138V438.3Z" transform="translate(-197.916 -28.556)"/><ellipse class="cls-13" cx="131.898" cy="409.743" rx="46.791" ry="15.342"/><path class="cls-14" d="M329.814,438.3c-44.944-19.5-3.845-51.419-5.77-77.13C344.828,377.278,372.256,421.815,329.814,438.3Z" transform="translate(-197.916 -28.556)"/><path class="cls-15" d="M329.982,435.475c-32.439-14.073-2.776-37.112-4.164-55.667C340.817,391.434,360.614,423.577,329.982,435.475Z" transform="translate(-197.916 -28.556)"/><path class="cls-16" d="M330.115,433.028c-22.566-9.79-1.932-25.817-2.9-38.725C337.653,402.391,351.424,424.751,330.115,433.028Z" transform="translate(-197.916 -28.556)"/><path class="cls-17" d="M330.3,430.648c-8.964-3.887-.767-10.255-1.151-15.38C333.291,418.479,338.763,427.361,330.3,430.648Z" transform="translate(-197.916 -28.556)"/><path class="cls-2" d="M329.814,167.523a33.509,33.509,0,1,0-33.507-33.508A33.573,33.573,0,0,0,329.814,167.523Z" transform="translate(-197.916 -28.556)"/><path class="cls-1" d="M329.814,28.556a57.893,57.893,0,1,1-57.893,57.893,57.893,57.893,0,0,1,57.893-57.893Zm0,19.044a38.85,38.85,0,1,0,38.85,38.849A38.849,38.849,0,0,0,329.814,47.6Z" transform="translate(-197.916 -28.556)"/><path class="cls-2" d="M329.814,167.523a33.509,33.509,0,1,0-33.507-33.508A33.573,33.573,0,0,0,329.814,167.523Z" transform="translate(-197.916 -28.556)"/><path class="cls-18" d="M325.1,105.106c10.2,0,16.468,8.266,14.009,18.461s-12.715,18.46-22.91,18.46-16.468-8.264-14.01-18.46S314.906,105.106,325.1,105.106Z" transform="translate(-197.916 -28.556)"/></svg>