<svg id="publicdomainvectors.org" xmlns="http://www.w3.org/2000/svg" viewBox="0 0 263.795 553.803"><defs><style>.cls-1{fill:#feebcd;}.cls-1,.cls-10,.cls-12,.cls-13,.cls-15,.cls-16,.cls-17,.cls-18,.cls-19,.cls-2,.cls-20,.cls-3,.cls-4,.cls-6,.cls-7,.cls-9{fill-rule:evenodd;}.cls-2{fill:#342e2a;}.cls-3{fill:#4e4542;}.cls-4{fill:#917e4d;}.cls-5{fill:#ab996d;}.cls-6{fill:#b5a272;}.cls-7,.cls-8{fill:#fef081;}.cls-11,.cls-9{fill:#7d706a;}.cls-10{fill:#645854;}.cls-12{fill:#f9b870;}.cls-13{fill:#f2aa5d;}.cls-14{fill:#fad08d;}.cls-15{fill:#ffcd05;}.cls-16{fill:#eb7923;}.cls-17{fill:#f7911e;}.cls-18{fill:#fedd30;}.cls-19{fill:#fff5e4;}.cls-20{fill:#5f5450;}</style></defs><path class="cls-1" d="M382.216,438.448a5.554,5.554,0,0,1-9.406,5.9,15.247,15.247,0,0,0-3.744-4,6.9,6.9,0,0,1-1.14-1.08,15.343,15.343,0,0,0-7.019-4.789c-.13-.047-.258-.1-.385-.149a15.371,15.371,0,0,0-8.571-1.089,10.4,10.4,0,0,1-5.516-.693,15.329,15.329,0,0,0-8.5-1.094,8.866,8.866,0,0,1-4.208-.411,15.344,15.344,0,0,0-9.209-.442,8.366,8.366,0,0,1-2.033.247,8.46,8.46,0,0,1-2.008-.24,15.349,15.349,0,0,0-9.226.474,8.822,8.822,0,0,1-2.17.477,15.345,15.345,0,0,0-8.5,3.406,8.317,8.317,0,0,1-2.1,1.217,15.334,15.334,0,0,0-5.7,3.875,8.249,8.249,0,1,1-9.229-13.255,15.281,15.281,0,0,0,5.609-4.007,8.373,8.373,0,0,1,4.923-2.67,15.34,15.34,0,0,0,8.267-3.939,8.847,8.847,0,0,1,8.581-1.873,15.368,15.368,0,0,0,9.238.111,8.417,8.417,0,0,1,4.643,0,15.367,15.367,0,0,0,9.221-.111,8.842,8.842,0,0,1,4.327-.242,15.366,15.366,0,0,0,8.542-.683,10.305,10.305,0,0,1,12.262,4.2,15.334,15.334,0,0,0,6.4,5.8,5.989,5.989,0,0,1,1.2.789,15.326,15.326,0,0,0,7.723,3.566,7.07,7.07,0,0,1,5.761,5.576A15.312,15.312,0,0,0,382.216,438.448Z" transform="translate(-197.916 -28.556)"/><path class="cls-2" d="M329.814,506.927c45.708,0,85.189,8.741,103.743,21.4h11.289v16.313c0,20.83-51.5,37.716-115.032,37.716s-115.031-16.886-115.031-37.716V528.33h11.29C244.627,515.668,284.107,506.927,329.814,506.927Z" transform="translate(-197.916 -28.556)"/><path class="cls-3" d="M329.814,468.265c52.411,0,97.678,10.022,118.954,24.538h12.944v18.7c0,23.885-59.052,43.246-131.9,43.246s-131.9-19.361-131.9-43.246V492.8h12.946C232.136,478.287,277.4,468.265,329.814,468.265Z" transform="translate(-197.916 -28.556)"/><path class="cls-2" d="M398.25,474.534c21.776,4.344,39.415,10.695,50.518,18.269h12.944v18.7c0,23.885-59.052,43.246-131.9,43.246-7.817,0-15.476-.226-22.922-.652,47.756,2.608,95.867-6.419,127.266-24.757,5.569-3.25,4.348-6.618-1.742-4.65-32.75,10.592-68.156,14.2-102.6,11.354l-38.206-25.311c-.314-.125-.627-.253-.94-.378Z" transform="translate(-197.916 -28.556)"/><path class="cls-4" d="M329.814,536.049c72.647,0,131.9-19.426,131.9-43.246s-59.251-43.243-131.9-43.243-131.9,19.425-131.9,43.243S257.168,536.049,329.814,536.049Z" transform="translate(-197.916 -28.556)"/><ellipse class="cls-5" cx="131.898" cy="464.09" rx="82.36" ry="28.914"/><path class="cls-2" d="M329.814,511.219c29.139,0,52.9-8.344,52.9-18.572s-23.765-18.574-52.9-18.574-52.9,8.344-52.9,18.574S300.677,511.219,329.814,511.219Z" transform="translate(-197.916 -28.556)"/><path class="cls-6" d="M255.42,272.644h17.118V468.01c0,4.007-17.118,3.9-17.118,0V272.644Zm131.671,0h17.118V468.01c0,4.007-17.118,3.9-17.118,0Z" transform="translate(-197.916 -28.556)"/><path class="cls-7" d="M246.973,296.791h19.061V520.244c0,4.583-19.061,4.453-19.061,0V296.791Zm146.623,0h19.059V520.244c0,4.583-19.059,4.453-19.059,0Z" transform="translate(-197.916 -28.556)"/><ellipse class="cls-8" cx="131.898" cy="246.838" rx="131.897" ry="44.235"/><path class="cls-2" d="M244.726,296.791H264.3V520.244c0,4.583-19.577,4.453-19.577,0V296.791Zm150.6,0H414.9V520.244c0,4.583-19.577,4.453-19.577,0Z" transform="translate(-197.916 -28.556)"/><path class="cls-3" d="M329.814,231.16c52.411,0,97.678,10.022,118.954,24.539h12.944v18.7c0,23.884-59.052,43.246-131.9,43.246s-131.9-19.362-131.9-43.246V255.7h12.946C232.136,241.182,277.4,231.16,329.814,231.16Z" transform="translate(-197.916 -28.556)"/><path class="cls-2" d="M398.25,237.43c21.776,4.343,39.415,10.694,50.518,18.269h12.944v18.7c0,23.884-59.052,43.246-131.9,43.246-7.817,0-15.476-.225-22.922-.653,47.756,2.608,95.867-6.42,127.266-24.756,5.569-3.252,4.348-6.618-1.742-4.649-32.75,10.59-68.156,14.2-102.6,11.353l-38.206-25.312-.94-.377Z" transform="translate(-197.916 -28.556)"/><path class="cls-9" d="M329.814,298.945c72.647,0,131.9-19.427,131.9-43.246s-59.251-43.244-131.9-43.244-131.9,19.426-131.9,43.244S257.168,298.945,329.814,298.945Z" transform="translate(-197.916 -28.556)"/><path class="cls-10" d="M329.814,212.455c72.846,0,131.9,19.361,131.9,43.244a14.586,14.586,0,0,1-.263,2.7c-21.188,3.549-46.959,5.633-74.762,5.633-72.2,0-130.729-14.037-130.729-31.353,0-5.987,7-11.581,19.136-16.339A372.834,372.834,0,0,1,329.814,212.455Z" transform="translate(-197.916 -28.556)"/><path class="cls-3" d="M329.814,187.345c33.875,0,63.135,6.479,76.886,15.863h8.367v35.734c0,15.438-38.168,27.953-85.253,27.953s-85.252-12.515-85.252-27.953V203.208h8.366C266.68,193.824,295.939,187.345,329.814,187.345Z" transform="translate(-197.916 -28.556)"/><ellipse class="cls-11" cx="131.898" cy="174.651" rx="85.253" ry="27.952"/><path class="cls-10" d="M329.814,175.255c47.085,0,85.253,12.515,85.253,27.953a11.876,11.876,0,0,1-3.455,7.9,252.436,252.436,0,0,1-26.347,1.348c-46.786,0-84.713-12.221-84.713-27.3,0-3.038,1.543-5.961,4.386-8.69C312.808,175.68,321.161,175.255,329.814,175.255Z" transform="translate(-197.916 -28.556)"/><path class="cls-3" d="M329.814,146.813c25.805,0,48.095,4.935,58.57,12.083h6.373v27.221c0,11.76-29.075,21.293-64.943,21.293s-64.942-9.533-64.942-21.293V158.9h6.374C281.72,151.748,304.01,146.813,329.814,146.813Z" transform="translate(-197.916 -28.556)"/><path class="cls-9" d="M329.814,137.6c35.868,0,64.943,9.533,64.943,21.293s-29.075,21.293-64.943,21.293-64.942-9.534-64.942-21.293S293.948,137.6,329.814,137.6Z" transform="translate(-197.916 -28.556)"/><path class="cls-12" d="M376.605,438.3v51.992c0,8.474-20.948,15.342-46.791,15.342s-46.79-6.868-46.79-15.342V438.3Z" transform="translate(-197.916 -28.556)"/><path class="cls-13" d="M376.605,438.3v38.035a9.608,9.608,0,0,1-14.717,8.138,61.458,61.458,0,0,0-64.147,0,9.608,9.608,0,0,1-14.717-8.138V438.3Z" transform="translate(-197.916 -28.556)"/><ellipse class="cls-14" cx="131.898" cy="409.743" rx="46.791" ry="15.342"/><path class="cls-15" d="M329.814,438.3c-44.944-19.5-3.845-51.419-5.77-77.13C344.828,377.278,372.256,421.815,329.814,438.3Z" transform="translate(-197.916 -28.556)"/><path class="cls-16" d="M329.982,435.475c-32.439-14.073-2.776-37.112-4.164-55.667C340.817,391.434,360.614,423.577,329.982,435.475Z" transform="translate(-197.916 -28.556)"/><path class="cls-17" d="M330.115,433.028c-22.566-9.79-1.932-25.817-2.9-38.725C337.653,402.391,351.424,424.751,330.115,433.028Z" transform="translate(-197.916 -28.556)"/><path class="cls-18" d="M330.3,430.648c-8.964-3.887-.767-10.255-1.151-15.38C333.291,418.479,338.763,427.361,330.3,430.648Z" transform="translate(-197.916 -28.556)"/><path class="cls-19" d="M300.768,441.191c.081.032.164.064.245.1a15.356,15.356,0,0,0,8.572,1.091,10.4,10.4,0,0,1,1.518-.113,10.278,10.278,0,0,1,4,.8,15.362,15.362,0,0,0,8.5,1.1,8.678,8.678,0,0,1,1.267-.091,8.808,8.808,0,0,1,2.94.5,15.369,15.369,0,0,0,9.212.442,8.4,8.4,0,0,1,4.041-.007,15.358,15.358,0,0,0,9.224-.474,8.739,8.739,0,0,1,2.171-.477,15.351,15.351,0,0,0,8.5-3.408,8.447,8.447,0,0,1,1.63-1.012,6.913,6.913,0,0,0,3.942-5.052,9.555,9.555,0,1,1,16.272,8.476,6.57,6.57,0,0,1-.879,2.106,17.73,17.73,0,0,0-2.892,9.93v5.029a10.7,10.7,0,0,0,4.078,8.562,6.471,6.471,0,1,1-10.548,5.028V458.352a3.206,3.206,0,0,0-4.089-3.081c-.078.022-.155.044-.232.063A11.032,11.032,0,0,0,364.567,475a8.279,8.279,0,1,1-12.637,4.037,28.119,28.119,0,0,0,1.621-9.647v-2.93a5.642,5.642,0,0,0-4.487-5.563q-.681-.151-1.357-.236a6.761,6.761,0,0,0-7.618,6.708v.831a4.472,4.472,0,0,0,1.291,3.209,10.108,10.108,0,1,1-14.466-.11,5.7,5.7,0,0,0-2.435-9.472,7.7,7.7,0,0,0-.985-.221c-.1-.016-.207-.034-.31-.053a16.7,16.7,0,0,0-2.855-.312,7.118,7.118,0,0,0-7.255,7.116v15.46a6.707,6.707,0,1,1-9.857.076,10.638,10.638,0,0,0,2.869-7.419V467.89a14.04,14.04,0,0,0-3.1-8.99,9.338,9.338,0,0,1-.609-.865,15.355,15.355,0,0,0-6.4-5.8l-.081-.043a4.274,4.274,0,0,0-6.241,3.793v13.725a6.448,6.448,0,1,1-10.557-4.969,7.592,7.592,0,0,0,2.838-6.032v-6.959a11.373,11.373,0,0,0-4-8.831,10.966,10.966,0,1,1,18.193-8.339A7,7,0,0,0,300.768,441.191Z" transform="translate(-197.916 -28.556)"/><path class="cls-3" d="M329.814,167.523a33.509,33.509,0,1,0-33.507-33.508A33.573,33.573,0,0,0,329.814,167.523Z" transform="translate(-197.916 -28.556)"/><path class="cls-2" d="M329.814,28.556a57.893,57.893,0,1,1-57.893,57.893,57.893,57.893,0,0,1,57.893-57.893Zm0,19.044a38.85,38.85,0,1,0,38.85,38.849A38.849,38.849,0,0,0,329.814,47.6Z" transform="translate(-197.916 -28.556)"/><path class="cls-3" d="M329.814,167.523a33.509,33.509,0,1,0-33.507-33.508A33.573,33.573,0,0,0,329.814,167.523Z" transform="translate(-197.916 -28.556)"/><path class="cls-20" d="M325.1,105.106c10.2,0,16.468,8.266,14.009,18.461s-12.715,18.46-22.91,18.46-16.468-8.264-14.01-18.46S314.906,105.106,325.1,105.106Z" transform="translate(-197.916 -28.556)"/></svg>